<?xml version="1.0" encoding="utf-8"?>
<!-- Generator: Adobe Illustrator 16.0.0, SVG Export Plug-In . SVG Version: 6.00 Build 0)  -->
<!DOCTYPE svg PUBLIC "-//W3C//DTD SVG 1.1//EN" "http://www.w3.org/Graphics/SVG/1.1/DTD/svg11.dtd">
<svg version="1.1" id="a0179547-7667-4cb3-b9ae-32eca47089ab"
	 xmlns="http://www.w3.org/2000/svg" xmlns:xlink="http://www.w3.org/1999/xlink" x="0px" y="0px" width="926.633px"
	 height="785.994px" viewBox="0 0 926.633 785.994" enable-background="new 0 0 926.633 785.994" xml:space="preserve">
<path fill="#3F3D56" d="M894.203,329.056c-46.34,59.26-133.78,72.831-206.13,52.19c-23.673-6.918-46.512-16.426-68.101-28.35
	c-12.54-6.81-24.779-14.28-36.77-22.24c-2.95-1.95-5.9-3.93-8.82-5.95c-1.99-1.36-3.974-2.736-5.95-4.13
	c-24.76-17.42-48.55-36.53-71.939-55.53c-58.391-47.43-118.38-96.32-190.12-118.95c-14.78-4.66-33.9-6.84-43.041,5.68
	c-7.93,10.87-3.09,26.26,3.62,37.92c24.89,43.19,70.07,70.46,115.291,91.43c45.22,20.97,93.12,37.96,132.43,68.62
	c39.31,30.66,69.32,79.39,61.28,128.58c-6.931,42.391-41.54,76.83-81.78,91.84c-40.24,15-85.12,12.91-126.95,3.17
	c-41.83-9.75-81.54-26.76-121.91-41.42c-24.34-8.85-56.16-14.97-72.31,5.28c-13.64,17.11-5.8,44.1,10.81,58.34
	s39.09,19.011,60.54,23.29c66.601,13.3,133.2,26.597,199.801,39.891c20.43,4.069,41.34,8.33,59.14,19.17
	c17.8,10.83,32.16,29.75,31.65,50.58c-0.511,20.529-15.54,38.67-33.961,47.76c-18.409,9.08-39.67,10.479-60.18,9.5
	c-76.859-3.68-297.21-125.79-350.06-141.4c-33.96-10.02-71.09-24.74-85.41-57.12c-17.83-40.31,11.51-89.08,51.56-107.489
	c40.04-18.421,86.46-14.341,130.1-8.141s88.72,14.09,131.201,2.311c42.479-11.78,81.399-50.181,77.21-94.061
	c-3.65-38.18-38.04-66.95-74.23-79.63c-28.33-9.93-58.47-12.63-88.23-17.1c-8.26-1.23-16.49-2.61-24.64-4.31
	c-20.872-4.373-41.232-10.908-60.75-19.5c-20.481-8.997-39.939-20.164-58.04-33.31c-14.437-10.47-27.928-22.185-40.32-35.01
	c-1.89-1.96-3.76-3.963-5.61-6.01c-1.76-1.96-3.5-3.96-5.2-6c-22.12-26.43-38.46-58.98-33.56-92.52c4.89-33.45,30.96-61.3,62-74.68
	c17.94-7.73,37.29-11.19,56.88-11.69c14.324-0.286,28.645,0.745,42.78,3.08c65.41,10.46,125.35,42.24,181.961,76.65
	c56.6,34.41,111.76,72.18,173.289,96.71c61.53,24.54,131.57,34.93,193.99,12.74c62.42-22.18,113.7-82.7,110.65-148.87
	c41.399,35.65,76.58,80.46,92.16,132.82S927.853,286.016,894.203,329.056z"/>
<circle fill="#FC9E4F" cx="595.911" cy="253.394" r="7.278"/>
<circle fill="#DE4954" cx="852.911" cy="157.394" r="11.252"/>
<circle fill="#DE4954" cx="114.911" cy="511.394" r="4.157"/>
<path fill="#DE4954" d="M234.243,272.396c0.002,3.606-0.434,7.199-1.3,10.7c-8.26-1.23-16.49-2.61-24.64-4.31
	c-20.872-4.373-41.232-10.908-60.75-19.5c7.245-23.391,32.08-36.479,55.47-29.235C221.584,235.8,234.239,252.965,234.243,272.396z"
	/>
<circle fill="#F0F0F0" cx="780.911" cy="230.394" r="4.252"/>
<circle fill="#F0F0F0" cx="391.911" cy="698.394" r="4.252"/>
<circle fill="#F0F0F0" cx="452.911" cy="757.394" r="4.252"/>
<circle fill="#F0F0F0" cx="75.911" cy="589.394" r="4.252"/>
<circle fill="#F0F0F0" cx="284.911" cy="510.394" r="4.252"/>
<circle fill="#F0F0F0" cx="263.911" cy="88.394" r="4.252"/>
<circle fill="#F0F0F0" cx="520.911" cy="421.394" r="4.252"/>
<circle fill="#F0F0F0" cx="552.911" cy="495.394" r="4.252"/>
<path fill="none" d="M154.843,163.725c6.05-1.826,11.837-3.805,17.362-5.936c33.96-13.117,53.438-30.911,53.438-48.82
	s-19.478-35.703-53.438-48.82c-3.358-1.297-6.82-2.538-10.386-3.724C174.292,91.637,171.77,130.424,154.843,163.725z"/>
<path fill="#FC9E4F" d="M169.643,101.966c0.031,21.469-5.042,42.637-14.8,61.76c-1.29,2.52-2.657,4.997-4.1,7.43
	c-14.29,24.132-35.67,43.274-61.23,54.82c-14.437-10.47-27.928-22.185-40.32-35.01c-1.89-1.96-3.76-3.963-5.61-6.01
	c-1.76-1.96-3.5-3.96-5.2-6c-22.12-26.43-38.46-58.98-33.56-92.52c4.89-33.45,30.96-61.3,62-74.68
	c17.94-7.73,37.29-11.19,56.88-11.69c15.317,13.527,27.393,30.329,35.33,49.16c1,2.37,1.92,4.77,2.79,7.2
	C167.013,71.048,169.658,86.451,169.643,101.966z"/>
<path fill="#E4E4E4" d="M231.643,108.966c0,20.83-20.34,40.15-57.28,54.42c-7.39,2.86-15.3,5.45-23.62,7.77
	c-31.14,8.68-68.2,13.49-107.16,13.8c-1.76-1.96-3.5-3.96-5.2-6c0.42,0.01,0.84,0.01,1.26,0.01c42.31,0,82.45-5.36,115.2-15.24
	c6.05-1.83,11.85-3.81,17.36-5.94c33.96-13.11,53.44-30.91,53.44-48.82c0-17.91-19.48-35.7-53.44-48.82
	c-3.36-1.3-6.82-2.54-10.38-3.72c-0.87-2.43-1.79-4.83-2.79-7.2c5.32,1.66,10.43,3.434,15.33,5.32
	C211.303,68.816,231.643,88.146,231.643,108.966z"/>
<circle fill="#F0F0F0" cx="45.911" cy="30.394" r="4.252"/>
<circle fill="#F0F0F0" cx="134.911" cy="57.394" r="4.252"/>
<circle fill="#F0F0F0" cx="88.911" cy="100.394" r="41.348"/>
<path opacity="0.3" fill="#F0F0F0" enable-background="new    " d="M852.513,319.236c-9.28,2.74-29.74,4.76-52.24,6
	c-22.489,1.23-47.159,1.77-71.52,2.29c-42.64,0.92-85.276,1.843-127.91,2.77c-5.86,0.13-11.74,0.25-17.64,0.36
	c-2.95-1.95-5.9-3.93-8.82-5.95c5.23,0.03,10.46,0,15.65-0.1c22.17-0.44,40.939-2.17,62.319-2.99c32.9-1.27,68.42-0.27,102.71,0.24
	C789.353,322.376,828.423,322.187,852.513,319.236z"/>
<path opacity="0.3" fill="#F0F0F0" enable-background="new    " d="M198.083,634.467L62.163,521.236l132.045,117.766
	c0.888,1.497,2.822,1.99,4.318,1.102c1.497-0.889,1.989-2.821,1.101-4.318C199.271,635.188,198.729,634.725,198.083,634.467
	L198.083,634.467z"/>
<circle fill="#F0F0F0" cx="94.911" cy="201.394" r="4.252"/>
<polygon fill="#FFB6B6" points="452.017,694.074 469.604,694.073 477.971,626.236 452.014,626.237 "/>
<path fill="#2F2E41" d="M447.531,688.332l4.95-0.001l19.326-7.859l10.358,7.858h0.002c12.189,0.001,22.071,9.883,22.072,22.072
	v0.718l-56.708,0.002L447.531,688.332z"/>
<polygon fill="#FFB6B6" points="320.308,694.074 302.721,694.073 294.354,626.236 320.311,626.237 "/>
<path fill="#2F2E41" d="M324.794,711.122l-56.709-0.002v-0.718c0.001-12.189,9.883-22.071,22.073-22.072h0.001l10.358-7.858
	l19.327,7.859l4.95,0.001L324.794,711.122z"/>
<path fill="#FC9E4F" d="M383.325,174.188l-17.808,13.56l-47.306,12.528c0,0,16.951,118.96,8.951,126.96s-0.785,8.215-2.393,18.607
	s-8.014,37.831-8.014,37.831h141.188c0,0,1.138-17.052-5.822-20.745c-6.959-3.693,6.416-20.929,0.729-23.811
	s2.313-27.882,2.313-27.882l17.337-81.85l-46.114-36.08l-7.013-16.897L383.325,174.188z"/>
<circle fill="#F2F2F2" cx="405.545" cy="274.328" r="6.161"/>
<path fill="#2F2E41" d="M316.757,383.674l-5.822,149.921c0,0-25.139,110.729-20.772,113.641s6.216,20.27,6.216,20.27l24.744,2.91
	c0,0,0-11.644,5.822-16.011c5.822-4.366,59.678-209.598,59.678-209.598l52.54,198.429c0,0,1.315,11.169,5.682,11.169
	s5.822,16.012,5.822,16.012h24.744v-16.012c0,0,11.118-3.524,6.752-15.169c-4.367-11.645-24.219-255.562-24.219-255.562H316.757z"/>
<circle fill="#FFB6B6" cx="401.817" cy="135.415" r="29.839"/>
<polygon opacity="0.1" enable-background="new    " points="452.85,269.414 458.672,273.781 461.583,253.403 "/>
<path fill="#FC9E4F" d="M321.003,200.16c0,0-7.278-1.456-11.645,11.645c-4.367,13.1-20.377,62.588-20.377,71.321
	s99.71,47.267,99.71,47.267l-10.375-36.396l-45.669-23.971L321.003,200.16z"/>
<circle fill="#FFB6B6" cx="393.316" cy="307.997" r="17"/>
<polygon opacity="0.1" enable-background="new    " points="331.316,251.997 332.647,270.026 374.878,292.192 337.316,266.997 "/>
<path fill="#EDF2F4" d="M432.839,254.567h-0.548v-15.008c0-4.797-3.889-8.687-8.686-8.687l0,0h-31.798
	c-4.797,0-8.687,3.889-8.687,8.687l0,0v82.336c0,4.797,3.89,8.687,8.687,8.687l0,0h31.797c4.798,0,8.687-3.889,8.687-8.687l0,0
	V265.25h0.548V254.567z"/>
<path fill="#FC9E4F" d="M472.5,229.387c0,0,4.366,2.911,7.277,16.011c2.911,13.1,21.833,62.589,14.556,74.233
	c-7.277,11.645-9.426,24.072-34.17,6.606l-34.24-31.35l24.744-23.289l10.188,7.277L472.5,229.387z"/>
<circle fill="#FC9E4F" cx="408.095" cy="260.292" r="7.278"/>
<circle fill="#FFB6B6" cx="429.163" cy="276.236" r="17"/>
<polygon opacity="0.1" enable-background="new    " points="330.514,306.41 379.316,327.997 329.158,318.194 "/>
<path fill="#2F2E41" d="M371.714,141.362l-4.098-15.592c-1.068-4.068-2.146-8.219-1.906-12.418c0.24-4.199,2.021-8.533,5.56-10.808
	s8.938-1.738,11.216,1.799c0.433-5.647,5.57-9.992,11.021-11.531s11.238-0.93,16.896-0.671c5.658,0.26,11.631,0.079,16.515-2.792
	c0.768,2.302-0.189,4.826-2.289,6.042c2.52,0.688,5.14-0.695,5.995-3.162c0.037,3.271-1.172,6.434-3.381,8.846
	c4.366-2.167,9.664-0.667,12.246,3.467c2.492,4.321,1.096,9.747-0.362,14.517l-7.484,24.482c-1.135-3.722-1.349-7.651-1.956-11.494
	c-0.606-3.843-1.687-7.768-4.224-10.718s-6.847-4.658-10.451-3.194c-2.022,0.822-3.564,2.489-5.391,3.686
	c-3.746,2.455-8.512,2.807-12.963,2.308s-8.789-1.767-13.24-2.273c-2.786-0.317-5.896-0.233-7.999,1.623
	c-1.445,1.502-2.4,3.409-2.738,5.467c-0.992,4.102-1.382,8.326-1.157,12.541"/>
</svg>
