<svg width="300" height="600" xmlns="http://www.w3.org/2000/svg" data-name="Layer 1">
 <g>
  <title>Layer 1</title>
  <path d="m116.52619,141.32164l61.8521,0a0,0 0 0 1 0,0l0,24.33858a15.811,15.811 0 0 1 -15.811,15.811l-30.23007,0a15.811,15.811 0 0 1 -15.811,-15.811l0,-24.33858a0,0 0 0 1 -0.00003,0z" fill="#2f2e41" id="svg_19"/>
  <path d="m198.99567,464.68875c-14.0849,14.27061 -28.19145,14.366 -42.31946,0.46l-10.85164,-95.95094l-7.59584,96.15146c-14.11847,11.42686 -27.27574,12.96547 -39.06448,0.42461c-11.24565,-83.07535 -17.35815,-160.2537 -7.59587,-219.19516l-20.61737,-83.55459l46.66036,-21.70249c9.39634,23.24307 -5.42324,35.1313 28.08839,34.73339c33.21631,-0.39441 30.73557,-12.88943 29.42321,-34.73339l42.92319,16.50892a15.38272,15.38272 0 0 1 9.14663,18.98963l-21.68633,68.6734c8.34867,34.66687 -0.22337,131.10079 -6.51079,219.19516z" fill="#e6e6e6" id="svg_20"/>
  <path d="m133.8882,548.24335s-34.64058,3.03439 -39.281,1.12362l0,0q-0.43935,-0.18092 -0.85525,-0.39352c-6.89625,-3.52114 -7.10638,-13.3821 -0.66091,-17.67309l13.66907,-9.1l-11.93638,-64.02236l46.1178,0.54256l-7.05333,89.52279z" fill="#2f2e41" id="svg_21"/>
  <path d="m159.93119,548.78591s34.64057,3.03439 39.281,1.12363l0,0q0.43935,-0.18092 0.85525,-0.39352c6.89625,-3.52114 7.10638,-13.3821 0.66091,-17.67309l-13.66907,-9.1l16.81945,-64.02236l-48.288,0l4.34046,90.06534z" fill="#2f2e41" id="svg_22"/>
  <path d="m78.54684,320.36719l6.86638,27.46551a16.55029,16.55029 0 0 1 -7.20087,17.996l0,0a16.55029,16.55029 0 0 1 -25.30968,-12.20314l-1.48394,-13.72613l-5.42562,-130.45524a54.87781,54.87781 0 0 1 33.85878,-50.69295l10.63132,-4.40811l-11.93637,166.02406z" fill="#e6e6e6" id="svg_23"/>
  <path d="m251.08165,208.3606l-0.03259,0.77046l-4.38388,105.30046l-0.84636,20.34609l-0.16279,4.0367l-1.48662,13.72678a16.55048,16.55048 0 1 1 -32.51036,-5.79453l6.86886,-27.4645l-0.15193,-2.04l-0.91147,-12.76107l-10.87297,-151.22299l10.63421,4.4056a54.9579,54.9579 0 0 1 33.8559,50.697z" fill="#e6e6e6" id="svg_24"/>
  <path d="m150.22547,328.19089c-39.41736,0 -63.732,-13.67 -64.07587,-13.86818l1.0846,-1.8799c0.48428,0.27976 49.24918,27.63359 120.8939,3.923l0.68244,2.06a185.89809,185.89809 0 0 1 -58.58507,9.76508z" fill="#2f2e41" id="svg_25"/>
  <path d="m111.19383,428.23535c-8.67463,-19.51846 -8.71861,-104.3521 -8.716,-107.954l2.17025,0.00212c-0.00053,0.87743 0.04026,87.97033 8.52946,107.07022l-1.98371,0.88166z" fill="#2f2e41" id="svg_26"/>
  <path d="m115.706,429.11066c-7.72727,0 -12.86148,-1.6457 -16.20852,-3.533c-6.09428,-3.43658 -7.35161,-8.11936 -7.40194,-8.31646l2.10242,-0.53832l-1.05121,0.26916l1.04962,-0.27446c0.044,0.16425 1.14129,4.06286 6.46307,7.02364c5.85956,3.25855 17.65446,5.69054 40.55865,-1.2356l0.62733,2.077c-10.96145,3.31469 -19.50575,4.52804 -26.13942,4.52804z" fill="#2f2e41" id="svg_27"/>
  <rect transform="rotate(-2.80385 -372.692 -208.44)" x="75.97534" y="174.18579" width="2.17072" height="170.16399" fill="#2f2e41" id="svg_28"/>
  <path d="m184.7958,428.23535l-1.98375,-0.88166c8.4892,-19.09989 8.53052,-106.19279 8.52946,-107.07022l2.17025,-0.00212c0.00212,3.6019 -0.04132,88.43554 -8.71596,107.954z" fill="#2f2e41" id="svg_29"/>
  <path d="m180.28363,429.11066c-6.63367,0 -15.17585,-1.21229 -26.13942,-4.52807l0.62734,-2.077c22.90418,6.92508 34.69643,4.49521 40.55865,1.2356c5.32177,-2.96078 6.41855,-6.85939 6.462,-7.02364l2.10137,0.54362c-0.05087,0.1971 -1.30766,4.87988 -7.40195,8.31646c-3.34651,1.88737 -8.48284,3.53303 -16.20799,3.53303z" fill="#2f2e41" id="svg_30"/>
  <rect transform="rotate(-87.2019 -297.261 760.163)" x="164.59636" y="1226.7849" width="170.16399" height="2.17072" fill="#2f2e41" id="svg_31"/>
  <polygon points="178.24798583984375,177.13101196289062 162.10101318359375,201.00299072265625 127.37701416015625,201.00299072265625 115.76699829101562,177.13101196289062 120.86700439453125,177.13101196289062 129.54800415039062,196.66299438476562 158.84600830078125,196.66299438476562 172.9530029296875,177.13101196289062 178.24798583984375,177.13101196289062 " fill="#2f2e41" id="svg_32"/>
  <polygon points="217.4429931640625,189.06698608398438 217.72500610351562,189.63101196289062 217.4429931640625,190.15200805664062 217.4429931640625,189.06698608398438 " id="svg_33"/>
  <path d="m253.2519,208.3606l-0.03259,0.77046l-20.58478,5.97905l-12.73935,-25.47877l13.03236,-23.8944a54.80994,54.80994 0 0 1 20.32436,42.62366z" fill="#2f2e41" id="svg_34"/>
  <path d="m44.65829,208.3606l0.03259,0.77046l20.58478,5.97905l12.73935,-25.47877l-13.03236,-23.8944a54.80994,54.80994 0 0 0 -20.32436,42.62366z" fill="#2f2e41" id="svg_35"/>
  <circle cx="147.45224" cy="101.71459" r="57.5116" fill="#e6e6e6" id="svg_36"/>
  <circle cx="147.45224" cy="109.31046" r="42.31986" fill="#2f2e41" id="svg_37"/>
  <polygon points="247.28399658203125,314.4320068359375 246.40301513671875,334.77801513671875 218.57101440429688,319.82501220703125 217.8489990234375,317.24200439453125 216.89999389648438,304.4809875488281 247.28399658203125,314.4320068359375 " fill="#2f2e41" id="svg_38"/>
  <polygon points="49.324005126953125,314.4320068359375 50.25,334.77801513671875 79.50299072265625,319.82501220703125 80.26300048828125,317.24200439453125 81.260009765625,304.4809875488281 49.324005126953125,314.4320068359375 " fill="#2f2e41" id="svg_39"/>
  <polygon points="162.67800903320312,202.0889892578125 126.697998046875,202.0889892578125 106.77700805664062,161.13900756835938 105.75299072265625,146.41000366210938 107.91799926757812,146.260009765625 108.91299438476562,160.5679931640625 128.0570068359375,199.91799926757812 161.52499389648438,199.91799926757812 186.07501220703125,163.62799072265625 191.30099487304688,147.60501098632812 193.36599731445312,148.27700805664062 187.9580078125,164.71798706054688 162.67800903320312,202.0889892578125 " fill="#2f2e41" id="svg_40"/>
 </g>

</svg>