<?xml version="1.0" encoding="utf-8"?>
<!-- Generator: Adobe Illustrator 16.0.0, SVG Export Plug-In . SVG Version: 6.00 Build 0)  -->
<!DOCTYPE svg PUBLIC "-//W3C//DTD SVG 1.1//EN" "http://www.w3.org/Graphics/SVG/1.1/DTD/svg11.dtd">
<svg version="1.1" id="b06f5967-fed7-4e93-82f7-c825c21009e5"
	 xmlns="http://www.w3.org/2000/svg" xmlns:xlink="http://www.w3.org/1999/xlink" x="0px" y="0px" width="637.957px" height="480px"
	 viewBox="0 0 637.957 480" enable-background="new 0 0 637.957 480" xml:space="preserve">
<path fill="#CCCCCC" d="M119.457,9c-0.001-4.971-4.032-8.999-9.002-8.998c-4.971,0.001-8.999,4.032-8.998,9.002
	c0.001,3.617,2.167,6.882,5.5,8.289V64h7V17.294C117.291,15.886,119.457,12.619,119.457,9z"/>
<path fill="#CCCCCC" d="M169.959,233h-0.003c-11.057-0.012-20.011-8.985-20-20.043c0-0.243,0.005-0.485,0.014-0.728
	c0.401-10.603,9.581-19.229,20.464-19.229h54.944l45.212-20.015c2.525-1.114,5.475,0.025,6.596,2.547l12.144,27.433
	c1.114,2.525-0.025,5.475-2.548,6.596l-44.531,19.714c-4.411,1.959-9.176,2.996-14.002,3.046L169.959,233z"/>
<path fill="#CCCCCC" d="M36.774,338.343c-0.261,0-0.521-0.021-0.778-0.065l-29.57-5.046l0,0c-2.449-0.419-4.097-2.742-3.679-5.191
	c0.006-0.037,0.013-0.074,0.02-0.11l23.146-118.051c1.815-10.615,11.892-17.75,22.507-15.935
	c10.616,1.814,17.75,11.892,15.935,22.507L41.169,334.707C40.769,336.817,38.922,338.345,36.774,338.343z"/>
<circle fill="#E6E6E6" cx="20.957" cy="346" r="18"/>
<circle fill="#E6E6E6" cx="108.279" cy="124.677" r="67"/>
<circle fill="#E6E6E6" cx="108.279" cy="124.677" r="67"/>
<circle fill="#3F3D56" cx="108.279" cy="124.677" r="51"/>
<path opacity="0.2" enable-background="new    " d="M73.957,125c0.002-25.182,18.378-46.594,43.268-50.417
	c-27.77-4.691-54.084,14.018-58.775,41.787c-4.691,27.769,14.017,54.084,41.787,58.776c5.354,0.904,10.818,0.948,16.185,0.129
	C91.902,171.111,73.961,149.87,73.957,125z"/>
<path fill="#E6E6E6" d="M159.279,338.5h-102c-9.108-0.01-16.49-7.392-16.5-16.5V207c0.01-9.108,7.392-16.49,16.5-16.5h15.5v4.5
	c0.007,6.348,5.152,11.493,11.5,11.5h48c6.349-0.007,11.493-5.152,11.5-11.5v-4.5h15.5c9.108,0.01,16.49,7.392,16.5,16.5v115
	C175.769,331.108,168.388,338.49,159.279,338.5z"/>
<path fill="#E6E6E6" d="M172.965,449h-40.009v-46.189l-52.251-80.114l33.504-21.853l52.022,79.769
	c3.725,5.707,5.763,12.35,5.879,19.164L172.965,449z"/>
<path fill="#E6E6E6" d="M102.457,479.5h-39v-117h39V479.5z"/>
<path fill="#E6E6E6" d="M151.279,373.5h-86c-4.692-0.006-8.495-3.808-8.5-8.5v-32c0.005-4.692,3.808-8.494,8.5-8.5h86
	c4.692,0.006,8.495,3.808,8.5,8.5v32C159.774,369.692,155.972,373.494,151.279,373.5z"/>
<path fill="#CCCCCC" d="M179.957,467.5h-46.5v-31h46.5c8.561,0,15.5,6.939,15.5,15.5S188.517,467.5,179.957,467.5z"/>
<path fill="#CCCCCC" d="M109.957,479.5h-46.5v-31h46.5c8.561,0,15.5,6.939,15.5,15.5S118.517,479.5,109.957,479.5z"/>
<path fill="#FFFFFF" d="M156.957,241.5h-37c-1.933,0-3.5-1.567-3.5-3.5s1.567-3.5,3.5-3.5h37c1.933,0,3.5,1.567,3.5,3.5
	S158.89,241.5,156.957,241.5z"/>
<path fill="#FFFFFF" d="M156.957,254h-37c-1.933,0-3.5-1.566-3.5-3.5s1.567-3.5,3.5-3.5h37c1.933,0,3.5,1.566,3.5,3.5
	S158.89,254,156.957,254z"/>
<circle fill="#E6E6E6" cx="291.957" cy="184" r="18"/>
<path fill="#3F3D56" d="M297.457,256.5c-3.312-0.004-5.996-2.688-6-6v-216c0-3.313,2.687-6,6-6c3.314,0,6,2.687,6,6v216
	C303.453,253.813,300.769,256.496,297.457,256.5z"/>
<path fill="#DE4954" d="M479.617,30.34c-5.271-4.61-23.37-18.96-46.721-21.58c-17.471-1.95-37.881,2.66-58.051,22.84
	c-16.18,16.18-31.438,23.85-45.359,22.81c-14.21-1.07-23.66-11.17-28.03-17.1c-0.629-0.871-1.753-1.228-2.77-0.88
	c-1.038,0.326-1.74,1.292-1.73,2.38v74.66c0.002,0.966,0.559,1.845,1.43,2.26c5.45,2.58,25.08,11.15,44.841,11.15
	c11.59,0,23.239-2.95,32.08-11.8c0.09-0.09,0.17-0.17,0.26-0.25c15.66-15.24,50.181-12.11,75.369-7.13
	c10.421,2.06,19.24,4.43,24.472,5.95c2.384,0.689,4.874-0.686,5.563-3.069c0.118-0.406,0.179-0.828,0.177-1.25v-75.6
	C481.147,32.433,480.59,31.198,479.617,30.34z"/>
</svg>
