<?xml version="1.0" encoding="utf-8"?>
<!-- Generator: Adobe Illustrator 16.0.0, SVG Export Plug-In . SVG Version: 6.00 Build 0)  -->
<!DOCTYPE svg PUBLIC "-//W3C//DTD SVG 1.1//EN" "http://www.w3.org/Graphics/SVG/1.1/DTD/svg11.dtd">
<svg version="1.1" id="Layer_1" xmlns="http://www.w3.org/2000/svg" xmlns:xlink="http://www.w3.org/1999/xlink" x="0px" y="0px"
	 width="173px" height="172.121px" viewBox="0 0 173 172.121" enable-background="new 0 0 173 172.121" xml:space="preserve">
<circle fill="#ED6142" cx="86.394" cy="85.976" r="85.75"/>
<path fill="#CB5138" d="M118.908,165.337c-6.877,2.475-9.723,3.648-15.285,4.642L6.247,116.5
	c-4.449-10.271-5.603-24.814-5.605-30.977c0,0,24.998,7.525,63.148,36.254"/>
<path fill="#CB5138" d="M23.771,27.389c0,0,24.854-1.741,67.204,34.875c8.346,7.215,61.1,68.43,62.059,77.698
	c0,0-2.792,3.568-5.988,6.742c-1.08,1.072-4.453,4.062-4.453,4.062c-5.266,4.7-28.476-16.175-32.953-21.06
	C94.055,112.705,82.18,88.974,69.603,78.767C56.496,68.133,9.066,48.874,9.066,48.874C8.714,49.617,12.877,39.128,23.771,27.389"/>
<path fill="#CB5138" d="M153.052,70.884c-7.957-7.757-15.731-15.976-22.934-24.441c-6.99-8.215-14.554-15.938-21.756-23.974
	c-3.522-3.931-7.506-7.51-10.88-11.559c-2.896-3.474-5.51-7.159-8.278-10.729c-7.567-0.293-12.996,0.743-18.676,1.525l44.867,54.464
	c31.377,36.003,54.651,48.751,54.651,48.751c0.907-4.358,1.748-9.426,2.1-14.762C165.653,83.852,159.538,77.208,153.052,70.884z"/>
<path fill="#CB5138" d="M122.345,20.774c7.978,9.81,15.845,19.728,24.239,29.187c6.927,7.803,14.97,14.866,22.777,21.787
	c0.522,0.463,1.075,0.941,1.639,1.433c-4.846-32.378-27.795-58.821-58.214-68.733C115.408,10.244,118.354,15.867,122.345,20.774z"/>
<path fill="#CB5138" d="M35.841,149.233c-3.467-3.963-6.824-8.24-10.992-11.503c-3.935-3.081-8.253-5.535-12.377-8.313
	c9.677,16.445,24.678,29.366,42.639,36.415C48.181,160.892,41.478,155.676,35.841,149.233z"/>
</svg>
