<?xml version="1.0" encoding="utf-8"?>
<!-- Generator: Adobe Illustrator 16.0.0, SVG Export Plug-In . SVG Version: 6.00 Build 0)  -->
<!DOCTYPE svg PUBLIC "-//W3C//DTD SVG 1.1//EN" "http://www.w3.org/Graphics/SVG/1.1/DTD/svg11.dtd">
<svg version="1.1" id="Layer_1" xmlns="http://www.w3.org/2000/svg" xmlns:xlink="http://www.w3.org/1999/xlink" x="0px" y="0px"
	 width="173px" height="172.121px" viewBox="0 0 173 172.121" enable-background="new 0 0 173 172.121" xml:space="preserve">
<circle fill="#DEECF7" cx="86.394" cy="85.976" r="85.75"/>
<path fill="#C4D5DD" d="M118.908,165.337c-6.877,2.475-9.723,3.648-15.285,4.642L6.247,116.5
	c-4.449-10.271-5.603-24.814-5.605-30.977c0,0,24.998,7.525,63.148,36.254"/>
<path fill="#C4D5DD" d="M23.771,27.389c0,0,24.854-1.741,67.204,34.875c8.346,7.215,61.1,68.43,62.059,77.698
	c0,0-2.792,3.568-5.988,6.742c-1.08,1.072-4.453,4.062-4.453,4.062c-5.266,4.7-28.476-16.175-32.953-21.06
	C94.055,112.705,82.18,88.974,69.603,78.767C56.496,68.133,9.066,48.874,9.066,48.874C8.714,49.617,12.877,39.128,23.771,27.389"/>
<path fill="#C4D5DD" d="M70.528,1.706c7.24-0.998,14.056-2.417,25.439-0.955l75.268,72.773c2.229,10.968,0.641,22.613-1.188,31.397
	c0,0-23.274-12.748-54.651-48.751"/>
</svg>
