<?xml version="1.0" encoding="utf-8"?>
<!-- Generator: Adobe Illustrator 16.0.0, SVG Export Plug-In . SVG Version: 6.00 Build 0)  -->
<!DOCTYPE svg PUBLIC "-//W3C//DTD SVG 1.1//EN" "http://www.w3.org/Graphics/SVG/1.1/DTD/svg11.dtd">
<svg version="1.1" id="Layer_1" xmlns="http://www.w3.org/2000/svg" xmlns:xlink="http://www.w3.org/1999/xlink" x="0px" y="0px"
	 width="150px" height="150px" viewBox="0 0 150 150" enable-background="new 0 0 150 150" xml:space="preserve">
<path fill-rule="evenodd" clip-rule="evenodd" fill="#EEF2F4" d="M74.998,24.25c-28.732,0-52.031,23.297-52.031,52.036
	c0,22.99,14.907,42.493,35.586,49.375c2.602,0.473,3.552-1.13,3.552-2.508c0-1.236-0.045-4.512-0.07-8.854
	c-14.474,3.146-17.528-6.975-17.528-6.975c-2.367-6.008-5.777-7.611-5.777-7.611c-4.725-3.225,0.357-3.161,0.357-3.161
	c5.222,0.366,7.97,5.363,7.97,5.363c4.642,7.949,12.179,5.652,15.144,4.325c0.473-3.365,1.817-5.659,3.304-6.958
	c-11.555-1.315-23.701-5.777-23.701-25.72c0-5.677,2.026-10.325,5.355-13.962c-0.534-1.317-2.32-6.607,0.511-13.77
	c0,0,4.369-1.396,14.308,5.334c4.151-1.154,8.602-1.734,13.028-1.752c4.419,0.019,8.868,0.599,13.028,1.752
	c9.935-6.731,14.295-5.334,14.295-5.334c2.839,7.163,1.052,12.453,0.518,13.77c3.332,3.637,5.347,8.285,5.347,13.962
	c0,19.991-12.165,24.391-23.758,25.675c1.869,1.61,3.531,4.786,3.531,9.642c0,6.954-0.063,12.563-0.063,14.274
	c0,1.39,0.937,3.008,3.579,2.502c20.661-6.896,35.553-26.387,35.553-49.369C127.033,47.547,103.737,24.25,74.998,24.25z"/>
</svg>
