<?xml version="1.0" encoding="utf-8"?>
<!-- Generator: Adobe Illustrator 16.0.0, SVG Export Plug-In . SVG Version: 6.00 Build 0)  -->
<!DOCTYPE svg PUBLIC "-//W3C//DTD SVG 1.1//EN" "http://www.w3.org/Graphics/SVG/1.1/DTD/svg11.dtd">
<svg version="1.1" id="Layer_1" xmlns="http://www.w3.org/2000/svg" xmlns:xlink="http://www.w3.org/1999/xlink" x="0px" y="0px"
	 width="700px" height="212.23px" viewBox="0 0 700 212.23" enable-background="new 0 0 700 212.23" xml:space="preserve">
<polygon fill="#403E56" points="676.583,186.824 670.952,186.806 670.943,190.186 676.575,190.204 693.469,195.876 693.502,181.236 
	"/>
<polygon fill="#403E56" points="676.765,172.131 670.995,172.115 670.979,175.585 676.759,175.603 694.084,181.42 694.113,166.399 
	"/>
<polygon fill="#403E56" points="676.659,157.532 671.028,157.514 671.021,160.894 676.651,160.912 693.545,166.584 693.578,151.934 
	"/>
<polygon fill="#403E56" points="677.076,53.104 671.295,53.087 671.287,56.558 677.067,56.573 694.383,62.392 694.423,47.371 "/>
<polygon fill="#403E56" points="677.115,38.082 671.335,38.066 671.327,41.536 677.107,41.553 694.423,47.371 694.462,32.35 "/>
<polygon fill="#403E56" points="677.155,23.062 671.374,23.045 671.368,26.516 677.147,26.531 694.462,32.35 694.503,17.329 "/>
<polygon fill="#403E56" points="676.902,121.287 671.12,121.272 671.113,124.741 676.894,124.758 694.208,130.577 694.249,115.556 
	"/>
<polygon fill="#403E56" points="676.94,106.267 671.161,106.25 671.153,109.712 676.934,109.727 694.249,115.556 694.288,100.535 
	"/>
<polygon fill="#403E56" points="676.981,91.246 671.201,91.23 671.193,94.69 676.974,94.706 694.288,100.535 694.328,85.503 "/>
<path fill="#403E56" d="M272.984,135.286c-19.896,0.396-54.957,24.164-54.989,36.814c-0.031,12.651,34.903,35.457,54.798,35.951
	l0.005,0.6l399.838,1.04l0.186-73.385l-399.829-1.04L272.984,135.286z"/>
<path fill="#403E56" d="M273.334,1.238c-19.897,0.396-54.957,24.163-54.989,36.814c-0.032,12.651,34.901,35.456,54.798,35.941
	l0.006,0.6l399.836,1.04l0.186-73.385l-399.827-1.04L273.334,1.238z"/>
<path fill="#302E41" d="M86.697,68.922C57.529,69.304,6.148,93.034,6.116,105.675c-0.032,12.642,51.224,35.523,80.34,36.022
	l0.005,0.59l586.28,1.53l0.195-73.375l-586.29-1.53L86.697,68.922z"/>
<g opacity="0.1">
	<path fill="#010101" d="M280.707,69.102c-17.78-7.425-36.387-22.072-36.363-31.292c0.027-12.001,31.475-33.916,51.661-36.554
		l-21.711-0.058l0,0c-19.897,0.396-54.958,24.164-54.989,36.814c-0.025,9.102,18.1,23.473,35.671,30.989L280.707,69.102z"/>
	<path fill="#010101" d="M298.788,208.398l-0.006-0.6c-19.895-0.483-54.83-23.299-54.797-35.94
		c0.022-8.26,14.972-21.251,30.887-29.388L112.5,142.045l-0.006-0.59c-29.166-0.509-80.422-23.382-80.34-36.023
		c0.03-11.94,45.897-33.79,75.563-36.486l-20.001-0.044l0,0C58.55,69.285,7.168,93.015,7.137,105.656
		c-0.033,12.641,51.223,35.523,80.39,36.023l0.005,0.59l162.371,0.423c-15.925,8.149-30.865,21.131-30.887,29.391
		c-0.032,12.642,34.902,35.456,54.798,35.94l0.005,0.6l399.836,1.039l-0.003-0.3L298.788,208.398z"/>
</g>
<path fill="#ECEBF2" d="M31.501,105.451l0-0.01c0.01-3.827,3.12-6.922,6.948-6.913l16.19,0.042c3.827,0.009,6.922,3.12,6.912,6.947
	l0,0.01c-0.011,3.827-3.12,6.921-6.948,6.913l-16.189-0.041C34.586,112.39,31.491,109.278,31.501,105.451z"/>
</svg>
