<?xml version="1.0" encoding="utf-8"?>
<!-- Generator: Adobe Illustrator 16.0.0, SVG Export Plug-In . SVG Version: 6.00 Build 0)  -->
<!DOCTYPE svg PUBLIC "-//W3C//DTD SVG 1.1//EN" "http://www.w3.org/Graphics/SVG/1.1/DTD/svg11.dtd">
<svg version="1.1" id="Layer_1" xmlns="http://www.w3.org/2000/svg" xmlns:xlink="http://www.w3.org/1999/xlink" x="0px" y="0px"
	 width="150px" height="150px" viewBox="0 0 150 150" enable-background="new 0 0 150 150" xml:space="preserve">
<path fill="#EEF2F4" d="M105.354,25.5H46.146C34.468,25.5,25,34.97,25,46.646v59.208C25,117.529,34.468,127,46.146,127h59.209
	c11.68,0,21.146-9.471,21.146-21.146V46.646C126.5,34.97,117.034,25.5,105.354,25.5z M58.833,105.854H46.146v-46.52h12.688V105.854z
	 M52.489,53.971c-4.084,0-7.4-3.341-7.4-7.461c0-4.118,3.316-7.459,7.4-7.459c4.085,0,7.401,3.341,7.401,7.459
	C59.891,50.629,56.578,53.971,52.489,53.971z M109.583,105.854H96.896V82.156c0-14.247-16.916-13.167-16.916,0v23.697H67.292v-46.52
	h12.688v7.465c5.905-10.936,29.604-11.746,29.604,10.471V105.854z"/>
</svg>
