<?xml version="1.0" encoding="utf-8"?>
<!-- Generator: Adobe Illustrator 16.0.0, SVG Export Plug-In . SVG Version: 6.00 Build 0)  -->
<!DOCTYPE svg PUBLIC "-//W3C//DTD SVG 1.1//EN" "http://www.w3.org/Graphics/SVG/1.1/DTD/svg11.dtd">
<svg version="1.1" id="Layer_1" xmlns="http://www.w3.org/2000/svg" xmlns:xlink="http://www.w3.org/1999/xlink" x="0px" y="0px"
	 width="200px" height="200px" viewBox="0 0 200 200" enable-background="new 0 0 200 200" xml:space="preserve">
<circle fill="#EC7B2F" cx="100.394" cy="99.976" r="85.75"/>
<path fill="#D6552A" d="M132.908,179.338c-6.877,2.474-9.723,3.648-15.285,4.641l-97.376-53.48
	c-4.449-10.271-7.29-24.642-5.605-30.976c0,0,24.998,7.525,63.148,36.254"/>
<path fill="#D6552A" d="M37.771,41.389c0,0,24.854-1.741,67.204,34.875c8.345,7.215,61.099,68.43,62.058,77.698
	c0,0-2.792,3.569-5.988,6.743c-1.08,1.072-4.453,4.061-4.453,4.061c-5.266,4.701-28.476-16.175-32.954-21.06
	c-15.584-17.002-27.458-40.732-40.035-50.939C70.496,82.133,23.066,62.874,23.066,62.874C22.714,63.617,26.877,53.128,37.771,41.389
	"/>
<path fill="#D6552A" d="M84.528,15.706c7.24-0.998,14.056-2.417,25.439-0.955l75.268,72.773c2.228,10.968,1.77,25.548-1.189,31.397
	c0,0-23.274-12.747-54.652-48.751"/>
</svg>
