<?xml version="1.0" encoding="utf-8"?>
<!-- Generator: Adobe Illustrator 16.0.0, SVG Export Plug-In . SVG Version: 6.00 Build 0)  -->
<!DOCTYPE svg PUBLIC "-//W3C//DTD SVG 1.1//EN" "http://www.w3.org/Graphics/SVG/1.1/DTD/svg11.dtd">
<svg version="1.1" id="Layer_1" xmlns="http://www.w3.org/2000/svg" xmlns:xlink="http://www.w3.org/1999/xlink" x="0px" y="0px"
	 width="200px" height="200px" viewBox="0 0 200 200" enable-background="new 0 0 200 200" xml:space="preserve">
<circle fill="#EC7B2F" cx="100.142" cy="99.788" r="85.75"/>
<path fill="#D6552A" d="M184.42,83.887c1.041,7.234,1.619,10.257,1.474,15.906l-71.96,84.641
	c-10.956,2.294-25.604,2.188-31.471-0.734c0,0,12.396-22.976,48.206-54.573"/>
<path fill="#D6552A" d="M30.165,149.358c0,0,3.29-24.696,47.67-58.823c8.745-6.725,79.313-46.099,88.585-45.176
	c0,0,2.936,3.452,5.401,7.221c0.834,1.274,3.083,5.179,3.083,5.179c3.547,6.103-21.567,24.644-27.253,28.049
	c-19.787,11.849-45.42,18.711-57.945,28.98c-13.052,10.702-41.45,53.294-41.45,53.294C48.914,168.576,39.476,162.39,30.165,149.358"
	/>
<path fill="#D6552A" d="M14.402,98.395c0.478-7.293,0.458-14.255,4.177-25.112l86.416-59.106
	c11.192,0.022,25.383,3.402,30.518,7.476c0,0-17.165,20.237-58.74,43.74"/>
</svg>
