<?xml version="1.0" encoding="utf-8"?>
<!-- Generator: Adobe Illustrator 16.0.0, SVG Export Plug-In . SVG Version: 6.00 Build 0)  -->
<!DOCTYPE svg PUBLIC "-//W3C//DTD SVG 1.1//EN" "http://www.w3.org/Graphics/SVG/1.1/DTD/svg11.dtd">
<svg version="1.1" id="Layer_1" xmlns="http://www.w3.org/2000/svg" xmlns:xlink="http://www.w3.org/1999/xlink" x="0px" y="0px"
	 width="200px" height="200px" viewBox="0 0 200 200" enable-background="new 0 0 200 200" xml:space="preserve">
<circle fill="#EC7B2F" cx="100" cy="100" r="85.75"/>
<path fill="#D6552A" d="M25.495,57.52c3.893-6.186,5.411-8.863,9.181-13.072l109.651-17.866
	c9.832,5.349,20.923,14.918,23.499,20.946c0,0-24.326,9.472-72.076,10.347"/>
<path fill="#D6552A" d="M185.421,107.567c0,0-18.504,16.683-74.421,13.933c-11.018-0.542-90.285-16.26-96.75-22.969
	c0,0,0-4.531,0.563-9c0.19-1.511,1.006-5.942,1.006-5.942c1.251-6.947,32.394-4.803,38.931-3.714
	c22.75,3.792,46.723,15.168,62.917,15.458c16.876,0.302,66.101-13.749,66.101-13.749C183.588,80.782,186.77,91.609,185.421,107.567"
	/>
<path fill="#D6552A" d="M164.415,156.604c-5.089,5.246-9.582,10.563-19.449,16.425L40.844,162.077
	c-8.512-7.268-17.134-19.034-18.406-25.464c0,0,26.187-4.298,73.083,4.729"/>
</svg>
